<svg xmlns="http://www.w3.org/2000/svg" xmlns:xlink="http://www.w3.org/1999/xlink" version="1.1" id="Layer_1" x="0px" y="0px" viewBox="0 0 301.9 35.5" style="enable-background:new 0 0 301.9 35.5;" xml:space="preserve">
<style type="text/css">
	.st0{fill:none;}
	.st1{fill:#F5F0EB;}
</style>
<rect x="-551.9" y="-129.9" class="st0" width="1298" height="939"/>
<path class="st1" d="M16.2,33.8c-5.3,0-9.9-2.3-12.4-5.7L7,25c1.8,2.6,5.4,4.9,9.1,4.9c4.1,0,6.4-2.3,6.4-5.5c0-3.1-2.3-4.5-5.8-5.5  l-2.3-0.7C9,16.5,6.1,14.1,6.1,9.7C6.1,4.8,10.6,1,16,1c4.4,0,7.8,1.7,10,3.9L23.1,8c-1.5-1.7-3.9-3.1-7.2-3.1  c-3.2,0-5.5,1.8-5.5,4.5c0,2.7,2.4,4,5.4,4.9l2.2,0.6c5.7,1.7,8.8,4.2,8.8,9.4C26.8,29.7,22.5,33.8,16.2,33.8z M42.2,33.8  c-6.6,0-11.6-5.2-11.6-11.9c0-6.6,5-11.8,11.6-11.8c6.5,0,11.5,5.2,11.5,11.8C53.7,28.6,48.7,33.8,42.2,33.8z M34.6,21.9  c0,4.5,3.2,8.1,7.6,8.1c4.4,0,7.6-3.6,7.6-8.1s-3.2-8.1-7.6-8.1C37.8,13.9,34.6,17.4,34.6,21.9z M58.9,15.7v-5h3.9v3.7  c1.3-2.8,4.1-4.3,7.3-4.3c4.7,0,8.4,3.4,8.4,8.1v14.9h-4V19.8c0-3.5-1.9-5.8-5.6-5.8c-3.5,0-6.1,2.6-6.1,6.1v13.1h-4V15.7z   M102.5,33.1c0-1.4,0-2.8,0-4.2c-1.6,3.1-4.9,4.8-8.3,4.8c-6.3,0-10.7-5.2-10.7-11.8c0-6.5,4.4-11.7,10.7-11.7  c3.3,0,6.5,1.7,8.1,4.6v-14h4v27.4v4.9H102.5z M87.5,21.9c0,4.5,3.1,8.1,7.5,8.1c4.5,0,7.5-3.6,7.5-8.1c0-4.5-3.1-8-7.5-8  C90.5,13.9,87.5,17.5,87.5,21.9z M123,33.8c-6.6,0-11.4-5.3-11.4-11.8c0-6.6,4.7-11.8,11.1-11.8c7.1,0,11.4,5.8,10.8,12.6h-18  c0.3,4.3,3.5,7.4,7.7,7.4c3.3,0,5.6-1.5,7.1-3.6l3,2.2C130.9,32,127.3,33.8,123,33.8z M115.6,19.5h14c-0.7-3.5-3.2-5.8-6.9-5.8  C118.9,13.7,116.4,16,115.6,19.5z M138.7,16.5v-5.8h3.9v4.4c1-2.6,3.6-4.7,6.9-4.7v3.9c-4.2,0.1-6.8,3.1-6.8,8.2v10.5h-4V16.5z   M173.8,33.8c-5.3,0-9.9-2.3-12.4-5.7l3.2-3c1.8,2.6,5.4,4.9,9.1,4.9c4.1,0,6.4-2.3,6.4-5.5c0-3.1-2.3-4.5-5.8-5.5l-2.3-0.7  c-5.5-1.6-8.3-4.1-8.3-8.5c0-4.9,4.5-8.6,9.8-8.6c4.4,0,7.8,1.7,10,3.9L180.7,8c-1.5-1.7-3.9-3.1-7.2-3.1c-3.2,0-5.5,1.8-5.5,4.5  c0,2.7,2.4,4,5.4,4.9l2.2,0.6c5.7,1.7,8.8,4.2,8.8,9.4C184.4,29.7,180.2,33.8,173.8,33.8z M198.6,33.4c-5.4,0.1-8-2.5-8-7V14.2h-3.3  v-3.4h3.3v-8h4v8h4v3.4h-4v12c0,2.6,1.6,3.8,4,3.8V33.4z M213.2,33.8c-6.6,0-11.6-5.2-11.6-11.9c0-6.6,5-11.8,11.6-11.8  c6.5,0,11.5,5.2,11.5,11.8C224.8,28.6,219.8,33.8,213.2,33.8z M205.6,21.9c0,4.5,3.2,8.1,7.6,8.1c4.4,0,7.6-3.6,7.6-8.1  s-3.2-8.1-7.6-8.1C208.8,13.9,205.6,17.4,205.6,21.9z M230,16.5v-5.8h3.9v4.4c1-2.6,3.6-4.7,6.9-4.7v3.9c-4.2,0.1-6.8,3.1-6.8,8.2  v10.5h-4V16.5z M245.4,33.1V10.8h4v22.4H245.4z M244.6,4c0-1.4,1.2-2.7,2.7-2.7c1.5,0,2.7,1.2,2.7,2.7c0,1.4-1.3,2.7-2.7,2.7  C245.8,6.7,244.6,5.4,244.6,4z M266,33.8c-6.6,0-11.4-5.3-11.4-11.8c0-6.6,4.7-11.8,11.1-11.8c7.1,0,11.4,5.8,10.8,12.6h-18  c0.3,4.3,3.5,7.4,7.7,7.4c3.3,0,5.6-1.5,7.1-3.6l3,2.2C273.9,32,270.3,33.8,266,33.8z M258.6,19.5h13.9c-0.7-3.5-3.2-5.8-6.9-5.8  C261.9,13.7,259.4,16,258.6,19.5z M288.9,33.8c-4.2,0-7.5-2-9.4-4.5l2.9-2.5c1.3,1.8,3.6,3.6,6.4,3.6c2.7,0,4.2-1.6,4.2-3.6  c0-2.1-1.9-2.9-4.1-3.5l-1.6-0.4c-4.2-1.2-6.5-2.9-6.5-6.5c0-3.5,3.1-6.3,7.6-6.3c3.9,0,6.5,1.8,8.1,3.5l-2.8,2.3  c-1.2-1.4-3.1-2.5-5.3-2.5c-2.3,0-3.6,1.3-3.6,2.8c0,1.8,1.5,2.6,3.9,3.3l1.5,0.4c3.7,1.1,6.8,2.6,6.8,6.7  C296.9,30.6,293.7,33.8,288.9,33.8z"/>
</svg>