<svg xmlns="http://www.w3.org/2000/svg" width="213" height="50" viewBox="0 0 213 50" fill="none">
<path d="M172.814 19.5266C178.849 19.5266 182.529 23.2249 183.265 28.4024H162.216C163.099 23.2249 166.926 19.5266 172.814 19.5266ZM132.923 44.3787C126.593 44.3787 121.441 39.3491 121.441 31.9527C121.441 24.5562 126.593 19.5266 132.923 19.5266C139.252 19.5266 144.404 24.5562 144.404 31.9527C144.404 39.3491 139.252 44.3787 132.923 44.3787ZM55.7892 44.3787C49.4596 44.3787 44.3075 39.3491 44.3075 31.9527C44.3075 24.5562 49.4596 19.5266 55.7892 19.5266C62.1189 19.5266 67.2709 24.5562 67.2709 31.9527C67.2709 39.3491 62.1189 44.3787 55.7892 44.3787ZM213 13.9053C207.701 13.9053 203.874 15.2367 201.224 19.6746V14.645H195.336V49.2604H201.224V30.9172C201.224 22.929 204.61 19.8225 213 19.8225V13.9053ZM172.814 13.9053C162.216 13.9053 155.592 21.8935 155.592 31.9527C155.592 42.6035 162.952 50 173.256 50C182.235 50 186.798 45.1183 188.859 42.1598L184.149 38.4615C182.088 41.4201 178.849 44.3787 173.256 44.3787C167.22 44.3787 162.363 40.5325 161.921 33.8757H189.595C189.742 33.432 189.742 32.6923 189.742 31.9527C189.742 22.0414 183.56 13.9053 172.814 13.9053ZM95.2391 13.9053C89.6455 13.9053 86.4071 16.716 84.935 19.2308V14.645H79.047V49.2604H84.935V30.1775C84.935 23.2249 88.4679 19.5266 94.3559 19.5266C100.244 19.5266 103.777 23.5207 103.777 30.1775V49.2604H109.665V28.9941C109.665 18.787 103.482 13.9053 95.2391 13.9053ZM55.7892 13.9053C45.4851 13.9053 38.1251 22.0414 38.1251 31.9527C38.1251 41.8639 45.4851 50 55.7892 50C66.0933 50 73.4534 41.8639 73.4534 31.9527C73.4534 22.0414 66.0933 13.9053 55.7892 13.9053ZM16.6337 20.2663C13.2481 18.9349 9.71527 17.6035 9.71527 13.3136C9.71527 9.1716 12.9537 6.65681 18.4001 6.65681C23.1106 6.65681 26.349 9.02367 29.1458 11.5385L33.1203 6.65681C30.3234 4.14201 25.4658 0.739645 18.2529 0.739645C8.97927 0.739645 3.23842 6.36095 3.23842 14.2012C3.23842 21.4497 8.24326 24.4083 14.1313 26.4793L17.8113 27.8107C23.8466 30.0296 26.9378 31.6568 26.9378 36.2426C26.9378 40.6805 22.9634 44.0828 17.5169 44.0828C10.4513 44.0828 6.77125 39.7929 4.26883 37.7219L0 42.8994C2.50242 44.9704 7.65446 50 17.6641 50C27.2322 50 33.4146 43.6391 33.4146 35.503C33.4146 27.071 27.9682 24.5562 19.7249 21.4497L16.6337 20.2663ZM144.404 19.8225C141.755 16.1243 137.78 13.9053 132.334 13.9053C122.03 13.9053 115.258 22.0414 115.258 31.9527C115.258 41.8639 122.03 50 132.334 50C137.78 50 141.755 47.7811 144.404 44.0828V49.2604H149.998L150.292 0H144.404V19.8225Z" fill="#00464B"/>
</svg>