<svg xmlns="http://www.w3.org/2000/svg" xmlns:xlink="http://www.w3.org/1999/xlink" version="1.1" id="Layer_1" x="0px" y="0px" viewBox="600 500 2353 600">
<style type="text/css">
	.st0{fill:#00464B;}
</style>
<path class="st0" d="M2893.6,752.4c-36,0-62,9-80,39v-34h-40v234h40v-124c0-54,23-75,80-75V752.4z M2620.6,790.4c41,0,66,25,71,60  h-143C2554.6,815.4,2580.6,790.4,2620.6,790.4z M2349.6,958.4c-43,0-78-34-78-84s35-84,78-84s78,34,78,84S2392.6,958.4,2349.6,958.4  z M1825.6,958.4c-43,0-78-34-78-84s35-84,78-84s78,34,78,84S1868.6,958.4,1825.6,958.4z M2620.6,752.4c-72,0-117,54-117,122  c0,72,50,122,120,122c61,0,92-33,106-53l-32-25c-14,20-36,40-74,40c-41,0-74-26-77-71h188c1-3,1-8,1-13  C2735.6,807.4,2693.6,752.4,2620.6,752.4z M2093.6,752.4c-38,0-60,19-70,36v-31h-40v234h40v-129c0-47,24-72,64-72s64,27,64,72v129  h40v-137C2191.6,785.4,2149.6,752.4,2093.6,752.4z M1825.6,752.4c-70,0-120,55-120,122s50,122,120,122s120-55,120-122  S1895.6,752.4,1825.6,752.4z M1559.6,795.4c-23-9-47-18-47-47c0-28,22-45,59-45c32,0,54,16,73,33l27-33c-19-17-52-40-101-40  c-63,0-102,38-102,91c0,49,34,69,74,83l25,9c41,15,62,26,62,57c0,30-27,53-64,53c-48,0-73-29-90-43l-29,35c17,14,52,48,120,48  c65,0,107-43,107-98c0-57-37-74-93-95L1559.6,795.4z M2427.6,792.4c-18-25-45-40-82-40c-70,0-116,55-116,122s46,122,116,122  c37,0,64-15,82-40v35h38l2-333h-40V792.4z M817.6,983.4c-24,0-46,3-70,11l79-94c6,29,17,60,36,88  C848.6,985.4,831.6,983.4,817.6,983.4z M1021.6,1042.4c-93,0-160-92-160-183l174-207c-1,5-1,11-1,14c0,41,20,81,44,120l24,39  c22,35,39,72,39,106C1141.6,988.4,1093.6,1042.4,1021.6,1042.4z M1188.6,667.4c-6,6-7,14-3,21l25,43c22,38,43,78,43,125  c0,73-45,128-112,166c26-30,37-60,37-91c0-44-20-85-45-126l-27-45c-20-33-35-65-35-98c0-55,41-101,110-101c36,0,71,12,93,39  C1250.6,612.4,1211.6,642.4,1188.6,667.4z M1181.6,524.4c-65,0-110,27-166,94l-348,414c-9,11-3,21,11,16l15-5c44-15,80-21,111-21  c103,0,121,57,233,57c141,0,253-90,253-225c0-46-12-81-45-136l-22-36c30-28,57-46,94-64c9-4,12-12,6-21  C1289.6,551.4,1246.6,524.4,1181.6,524.4z"/>
</svg>